<svg width="11" height="10" viewBox="0 0 11 10" fill="none" xmlns="http://www.w3.org/2000/svg">
<path d="M5.50061 4.29725e-07C2.46151 -0.00114715 0 2.29631 0 5.13197C0 7.37434 1.53983 9.28047 3.68428 9.98049C3.97308 10.0482 3.92884 9.85655 3.92884 9.72573V8.83635C2.2612 9.01882 2.19361 7.98829 2.08178 7.81616C1.85566 7.45582 1.32108 7.36401 1.48084 7.19187C1.86057 7.00941 2.24768 7.23778 2.69624 7.85632C3.02067 8.30503 3.65356 8.22929 3.9743 8.15469C4.04435 7.88501 4.19428 7.64402 4.40074 7.45697C2.67289 7.16778 1.95274 6.18315 1.95274 5.01262C1.95274 4.44457 2.15306 3.92242 2.54631 3.50126C2.29561 2.80698 2.56966 2.21253 2.60652 2.12417C3.32052 2.06449 4.06279 2.60156 4.12055 2.64402C4.52609 2.54189 4.98939 2.48795 5.50799 2.48795C6.02905 2.48795 6.49358 2.54418 6.9028 2.64746C7.04167 2.54877 7.72986 2.08745 8.39348 2.14368C8.42911 2.23204 8.69702 2.81272 8.46107 3.49782C8.85923 3.92013 9.062 4.44687 9.062 5.01607C9.062 6.18889 8.33695 7.17466 6.60418 7.45926C6.75259 7.59556 6.87044 7.7581 6.95083 7.93741C7.03122 8.11671 7.07255 8.30917 7.07239 8.50356V9.79458C7.08223 9.89787 7.07239 10 7.25673 10C9.43314 9.3149 11 7.395 11 5.13312C11 2.2963 8.53726 4.29725e-07 5.50061 4.29725e-07Z" fill="#875053"/>
</svg>
